<svg width="15" height="14" viewBox="0 0 15 14" fill="none" xmlns="http://www.w3.org/2000/svg">
<path fill-rule="evenodd" clip-rule="evenodd" d="M6.83312 1.12662C6.87917 0.980587 6.97057 0.853041 7.09406 0.762504C7.21754 0.671967 7.36667 0.623154 7.51978 0.623154C7.6729 0.623154 7.82203 0.671967 7.94552 0.762504C8.069 0.853041 8.1604 0.980587 8.20645 1.12662L9.44645 4.93995H13.4465C13.605 4.93395 13.7612 4.98004 13.8912 5.07117C14.0211 5.16231 14.1176 5.29347 14.166 5.44462C14.2144 5.59578 14.2119 5.75862 14.159 5.90825C14.1062 6.05789 14.0057 6.18609 13.8731 6.27328L10.6265 8.62661L11.8665 12.4466C11.9155 12.5921 11.9167 12.7495 11.87 12.8958C11.8232 13.042 11.7309 13.1695 11.6066 13.2596C11.4823 13.3497 11.3324 13.3977 11.1788 13.3965C11.0253 13.3954 10.8761 13.3452 10.7531 13.2533L7.49979 10.8733L4.25312 13.2333C4.13012 13.3252 3.98096 13.3754 3.82741 13.3765C3.67387 13.3777 3.52398 13.3297 3.39963 13.2396C3.27529 13.1495 3.18301 13.022 3.13626 12.8758C3.08951 12.7295 3.09075 12.5721 3.13979 12.4266L4.37979 8.60661L1.13312 6.25328C1.00051 6.16609 0.900087 6.03789 0.847199 5.88825C0.794312 5.73862 0.791866 5.57578 0.840236 5.42463C0.888606 5.27347 0.985131 5.14231 1.11506 5.05117C1.245 4.96004 1.40119 4.91395 1.55979 4.91995H5.55979L6.83312 1.12662Z" fill="#151515"/>
</svg>
