<svg width="13" height="12" viewBox="0 0 13 12" fill="none" xmlns="http://www.w3.org/2000/svg">
<path fill-rule="evenodd" clip-rule="evenodd" d="M7.1551 2.44501C7.63249 1.96762 8.27997 1.69942 8.9551 1.69942C9.63023 1.69942 10.2777 1.96762 10.7551 2.44501C11.2325 2.9224 11.5007 3.56988 11.5007 4.24501C11.5007 4.92014 11.2325 5.56762 10.7551 6.04501L10.1001 6.70001L6.5001 10.3L2.9001 6.70001L2.2451 6.04501C1.76771 5.56762 1.49951 4.92014 1.49951 4.24501C1.49951 3.56988 1.76771 2.9224 2.2451 2.44501C2.72249 1.96762 3.36997 1.69942 4.0451 1.69942C4.72023 1.69942 5.36771 1.96762 5.8451 2.44501L6.5001 3.10001L7.1551 2.44501Z" stroke="#151515" stroke-linecap="round" stroke-linejoin="bevel"/>
</svg>
