<svg width="13" height="12" viewBox="0 0 13 12" fill="none" xmlns="http://www.w3.org/2000/svg">
<g clip-path="url(#clip0_634_12008)">
<path d="M5.25 1H3.25C2.69772 1 2.25 1.44772 2.25 2V4C2.25 4.55228 2.69772 5 3.25 5H5.25C5.80228 5 6.25 4.55228 6.25 4V2C6.25 1.44772 5.80228 1 5.25 1Z" stroke="#E6704B" stroke-linecap="round" stroke-linejoin="bevel"/>
<path d="M5.25 7H3.25C2.69772 7 2.25 7.44772 2.25 8V10C2.25 10.5523 2.69772 11 3.25 11H5.25C5.80228 11 6.25 10.5523 6.25 10V8C6.25 7.44772 5.80228 7 5.25 7Z" stroke="#E6704B" stroke-linecap="round" stroke-linejoin="bevel"/>
<path d="M10.75 7.99997H7.75" stroke="#E6704B" stroke-linecap="round" stroke-linejoin="bevel"/>
<path d="M9.75 10H7.75" stroke="#E6704B" stroke-linecap="round" stroke-linejoin="bevel"/>
<path d="M9.75 4H7.75" stroke="#E6704B" stroke-linecap="round" stroke-linejoin="bevel"/>
<path d="M10.75 1.99997H7.75" stroke="#E6704B" stroke-linecap="round" stroke-linejoin="bevel"/>
</g>
<defs>
<clipPath id="clip0_634_12008">
<rect width="12" height="12" fill="white" transform="translate(0.5 3.05176e-05)"/>
</clipPath>
</defs>
</svg>
