<svg width="15" height="16" viewBox="0 0 15 16" fill="none" xmlns="http://www.w3.org/2000/svg">
<path fill-rule="evenodd" clip-rule="evenodd" d="M6.83312 2.12662C6.87917 1.98059 6.97057 1.85304 7.09406 1.7625C7.21754 1.67197 7.36667 1.62315 7.51979 1.62315C7.6729 1.62315 7.82203 1.67197 7.94552 1.7625C8.069 1.85304 8.1604 1.98059 8.20645 2.12662L9.44645 5.93995H13.4465C13.605 5.93395 13.7612 5.98004 13.8912 6.07117C14.0211 6.16231 14.1176 6.29347 14.166 6.44463C14.2144 6.59578 14.2119 6.75862 14.159 6.90825C14.1062 7.05789 14.0057 7.18609 13.8731 7.27328L10.6265 9.62661L11.8665 13.4466C11.9155 13.5921 11.9167 13.7495 11.87 13.8958C11.8232 14.042 11.7309 14.1695 11.6066 14.2596C11.4823 14.3497 11.3324 14.3977 11.1788 14.3965C11.0253 14.3954 10.8761 14.3452 10.7531 14.2533L7.49979 11.8733L4.25312 14.2333C4.13012 14.3252 3.98096 14.3754 3.82741 14.3765C3.67387 14.3777 3.52398 14.3297 3.39963 14.2396C3.27529 14.1495 3.18301 14.022 3.13626 13.8758C3.08951 13.7295 3.09075 13.5721 3.13979 13.4266L4.37979 9.60661L1.13312 7.25328C1.00051 7.16609 0.900087 7.03789 0.847199 6.88825C0.794312 6.73862 0.791866 6.57578 0.840236 6.42463C0.888606 6.27347 0.985131 6.14231 1.11506 6.05117C1.245 5.96004 1.40119 5.91395 1.55979 5.91995H5.55979L6.83312 2.12662Z" stroke="#EBEBEB" stroke-width="1.5" stroke-linecap="round" stroke-linejoin="round"/>
</svg>
